<svg width="36" height="36" viewBox="0 0 36 36" fill="none" xmlns="http://www.w3.org/2000/svg">
<path d="M35.4645 7.40549C34.212 7.96049 32.8665 8.33549 31.452 8.50499C32.9115 7.63168 34.0034 6.25719 34.524 4.63799C33.1528 5.45248 31.652 6.02579 30.087 6.33299C29.0346 5.20929 27.6406 4.46448 26.1215 4.2142C24.6024 3.96393 23.0432 4.22218 21.6859 4.94887C20.3286 5.67556 19.2492 6.83004 18.6152 8.23305C17.9813 9.63606 17.8283 11.2091 18.18 12.708C15.4015 12.5685 12.6835 11.8463 10.2022 10.5884C7.72085 9.33038 5.53178 7.56474 3.77702 5.40599C3.17702 6.44099 2.83202 7.64099 2.83202 8.91899C2.83135 10.0695 3.11467 11.2024 3.65684 12.2171C4.199 13.2318 4.98326 14.0971 5.94002 14.736C4.83043 14.7007 3.74533 14.4009 2.77502 13.8615V13.9515C2.77491 15.5651 3.33307 17.1291 4.35479 18.378C5.37652 19.6269 6.79887 20.4839 8.38052 20.8035C7.35119 21.0821 6.27202 21.1231 5.22452 20.9235C5.67076 22.3119 6.54001 23.526 7.71057 24.3959C8.88113 25.2657 10.2944 25.7478 11.7525 25.7745C9.27727 27.7176 6.22035 28.7716 3.07352 28.767C2.51609 28.7671 1.95913 28.7346 1.40552 28.6695C4.59973 30.7233 8.31803 31.8132 12.1155 31.809C24.9705 31.809 31.998 21.162 31.998 11.928C31.998 11.628 31.9905 11.325 31.977 11.025C33.344 10.0365 34.5239 8.81234 35.4615 7.40999L35.4645 7.40549V7.40549Z" fill="white"/>
</svg>
